<?xml version="1.0" encoding="UTF-8"?>
<svg width="360" height="170" version="1.1" viewBox="0 0 360 170" xmlns="http://www.w3.org/2000/svg">
 <path d="m260.23 124.91c0.814 0 1.369-0.481 1.369-1.258 0-0.703-0.259-1.406-1.073-2.146-1.073-1.036-2.553-1.591-4.329-2.146l-0.37 0.481c1.628 1.517 2.109 2.664 2.775 3.7 0.55502 0.851 1.036 1.369 1.628 1.369zm-11.988 17.168c-1.702 0-2.849-1.443-2.849-3.108 0-1.961 1.221-3.404 2.96-3.404 1.591 0 2.257 1.48 2.257 3.33 0 2.109-0.592 3.182-2.368 3.182zm16.613-18.389c0.73999 0 1.295-0.518 1.295-1.258 0-0.74-0.22198-1.332-1.036-2.109-1.11-1.036-2.479-1.443-4.403-2.035l-0.37 0.481c1.665 1.48 2.257 2.664 2.849 3.589 0.59201 0.85101 1.073 1.332 1.665 1.332zm-27.195 9.435c1.258 0 2.035-0.77699 3.811-1.295 1.739-0.51801 4.847-1.258 8.621-1.739l0.222 3.663c-0.481-0.11101-0.99899-0.148-1.554-0.148-3.034 0-5.291 2.479-5.291 5.735 0 3.737 2.701 6.808 6.438 5.772-1.443 3.478-5.217 5.846-9.768 7.474l0.33299 0.703c8.103-1.147 14.393-5.106 14.393-12.765 0-1.924-0.481-3.774-1.591-5.069 0-1.85 0-3.922 0.037003-5.735 6.808-0.55499 9.176 0.481 10.804 0.481 1.147 0 1.85-0.185 1.85-1.443 0-1.702-2.442-2.775-4.44-2.775-0.55499 0-1.332 0.481-8.14 1.258l0.11101-1.554c0.074005-0.925 0.703-1.702 0.703-2.701 0-1.221-2.664-2.183-4.736-2.183-1.258 0-2.479 0.703-3.33 1.332l0.037002 0.518c1.036 0.185 1.924 0.37 2.553 0.629 0.592 0.259 0.77699 0.51801 0.851 1.147 0.11099 0.777 0.222 1.924 0.33299 3.182-4.181 0.51799-11.137 1.406-12.765 1.332-1.258 0-1.85-0.629-3.145-2.146l-0.55499 0.222c-0.037002 0.81401-0.037002 1.85 0.185 2.664 0.407 1.48 2.553 3.441 4.033 3.441zm-24.309 15.244c-0.55499 0.037003-1.11 0.074005-1.739 0.074005-2.849 0-4.551-0.888-4.551-2.294 0-1.147 0.92499-1.85 2.331-1.85 1.998 0 3.515 1.591 3.959 4.07zm-0.407 3.33c7.622 0 12.025-3.996 12.062-8.954 0.037002-5.55-4.144-8.658-9.139-8.658-2.849 0-4.958 0.85101-6.179 1.258-0.37001 0.11101-0.59201-0.148-0.185-0.55499 1.406-1.48 5.957-5.402 8.399-6.993 1.221-0.851 2.516-1.147 2.516-2.183 0-1.591-2.923-3.922-4.662-3.922-0.77699 0-0.77699 0.555-2.22 1.036-1.998 0.629-5.883 1.554-7.215 1.554-0.962 0-1.887-1.073-2.516-2.257l-0.51799 0.037002c-0.222 0.925-0.33301 1.554-0.29601 2.405 0.11101 1.295 1.776 3.811 3.959 3.811 0.77701 0 1.406-0.55501 2.109-0.99901 1.406-0.814 3.7-2.072 5.069-2.294 0.592-0.111 0.96199 0.148 0.33299 0.962-1.924 2.627-9.694 9.953-13.32 13.505-1.221 1.184-1.813 1.998-1.887 2.997-0.074005 1.406 0.74 2.368 1.554 2.405 0.925 0.037002 1.295-0.29599 2.183-1.443 3.145-4.07 6.697-7.77 11.766-7.77 4.255 0 6.438 2.516 6.401 5.772-0.037003 2.553-1.295 4.921-4.366 6.179-0.888-3.626-3.922-5.032-6.438-5.032-2.738 0-4.958 1.591-4.958 4.033 0 3.219 3.219 5.106 7.548 5.106zm-23.717-25.123c0.666 0 1.332-0.407 1.332-1.369 0.036987-0.666-0.222-1.295-0.925-2.072-0.96201-0.999-2.664-1.887-4.588-2.479l-0.296 0.444c1.665 1.48 2.331 2.775 2.923 3.885 0.55499 0.925 0.851 1.554 1.554 1.591zm-24.605 25.826c1.221 0 1.887-0.73999 1.887-2.072 0-1.147-0.74001-2.368-0.74001-3.737 0-0.55501 0.14801-1.332 0.481-2.812 0.37-1.332 1.591-4.81 2.294-6.845l-0.81401-0.33299c-0.96199 1.85-2.96 5.883-3.811 7.215-0.37001 0.55501-0.74 0.51801-0.99901 0-0.222-0.55499-0.37-1.48-0.37-2.627 0-3.7 1.517-7.437 2.886-9.879 0.814-1.739 1.443-2.479 1.443-3.478 0-2.035-2.072-4.181-3.182-4.884-0.925-0.629-1.702-0.925-2.923-1.221l-0.37 0.407c0.92499 1.147 1.924 2.701 1.924 4.403 0 1.665-0.407 3.145-0.888 4.958-0.55501 2.22-1.628 6.623-1.628 10.027 0 4.218 0.96201 7.363 2.294 9.213 0.73999 1.036 1.591 1.665 2.516 1.665zm27.713-28.564c0.77699 0 1.221-0.55501 1.221-1.332 0.037002-0.629-0.296-1.406-1.147-2.109-1.073-0.888-2.516-1.443-4.662-1.924l-0.29599 0.444c1.85 1.295 2.701 2.553 3.293 3.441 0.592 0.888 0.96199 1.48 1.591 1.48zm-15.54 9.657c1.147 0 2.331-0.074005 3.515-0.222v0.851c0.037002 2.442 0.185 5.18 0.296 7.363l-1.702-0.074005c-4.255 0-7.992 1.591-7.992 5.254 0 3.182 2.96 4.921 6.29 4.921 4.958 0 7.178-1.85 7.178-5.365v-0.222c0.96199 0.59201 1.887 1.295 2.849 2.183 1.221 1.147 1.776 1.739 2.627 1.739 0.99899 0 1.628-0.73999 1.628-1.961 0-0.851-0.407-1.665-1.221-2.442-1.221-1.184-3.182-2.664-6.216-3.478-0.222-2.109-0.481-4.699-0.481-7.844l0.037003-1.443c1.998-0.407 3.663-0.888 4.477-1.184 1.665-0.703 2.331-0.962 2.331-2.183 0-1.147-1.554-1.776-2.849-1.776-0.259 0-1.221 0.592-3.737 1.443 0.11101-1.036 0.222-1.887 0.33301-2.442 0.222-1.332 0.629-1.665 0.629-2.553 0-1.073-2.331-2.331-4.81-2.368-0.99901 0-2.405 0.814-3.33 1.48l0.07399 0.55499c0.925 0.148 1.887 0.33301 2.664 0.629 0.666 0.259 0.962 0.333 0.962 1.924l-0.037002 3.7c-1.221 0.222-2.59 0.37-4.144 0.37-1.554 0-3.182-0.48099-5.032-1.702l-0.407 0.407c1.813 4.107 3.7 4.44 6.068 4.44zm3.922 10.915v0.074006c0 2.553-0.888 3.848-4.625 3.848-1.776 0-3.404-0.592-3.404-1.961 0-1.554 2.072-2.442 4.144-2.442 1.369 0 2.664 0.148 3.885 0.48099zm-36.112 7.03c5.143 0 9.583-3.589 10.397-12.284l-0.592-0.148c-1.517 3.996-4.81 8.362-8.732 8.362-1.517 0-2.516-0.629-2.516-2.479 0-2.035 0.073989-3.7-0.037003-5.439-0.222-2.849-1.961-4.44-5.106-4.44-1.184 0-2.849 0.407-4.625 1.295-0.259 0.14801-0.33299 0.037002-0.185-0.185 1.48-2.516 4.699-6.697 6.586-8.621 1.036-1.073 2.22-1.48 2.22-2.331 0-1.48-1.961-3.811-4.884-4.218-0.814-0.148-2.183 0-3.071 0.33299l-0.074006 0.55501c0.666 0.259 1.665 0.74 2.22 1.221 0.40701 0.37 0.55501 0.888 0.18501 1.628-1.11 2.146-6.697 11.47-9.139 15.688-2.035 3.515-4.033 6.216-4.033 8.14 0 1.332 0.777 2.738 2.183 2.738 1.369 0 2.035-0.99899 2.442-2.109 0.629-1.739 1.258-3.996 2.183-6.142 1.332-3.034 3.922-6.327 6.919-6.327 1.998 0 2.553 1.258 2.553 2.812 0 2.368-0.444 4.403-0.407 6.956 0.037003 3.034 1.961 4.995 5.513 4.995zm-26.603-22.459c0.74 0.036987 1.369-0.48102 1.406-1.221 0.074005-0.962-0.37-1.665-1.184-2.405-1.11-0.925-2.997-1.591-4.921-2.035l-0.296 0.481c1.776 1.406 2.627 2.701 3.256 3.589 0.666 0.92499 1.073 1.554 1.739 1.591zm-3.367 2.775c0.777 0.074005 1.369-0.51801 1.406-1.295 0.037003-0.77701-0.296-1.517-1.073-2.294-1.073-0.962-2.775-1.776-4.588-2.368l-0.37 0.518c1.776 1.554 2.331 2.775 2.997 3.922 0.518 0.888 0.962 1.517 1.628 1.517zm-8.177 20.609c2.109 0 3.256-0.51799 3.256-2.072 0-1.11-1.11-2.294-2.109-2.442-1.11-0.185-2.96 0.07399-4.995-0.296-2.738-0.55499-4.551-1.739-4.551-4.144 0-2.701 1.295-4.218 2.775-5.291 2.183-1.591 5.957-2.035 8.14-2.072 1.406-0.036987 2.775 0.037002 3.7 0.037002 1.628 0 2.331-0.592 2.331-1.554 0-1.665-2.664-2.516-4.366-2.516-1.665 0-3.404 0.66598-6.068 1.48-2.516 0.703-7.03 2.146-9.435 2.738-0.222 0.037003-0.29601-0.073989-0.111-0.25899 3.589-3.182 9.509-7.548 12.395-9.509 0.703-0.444 1.628-0.666 1.628-1.628 0-1.517-3.145-4.033-4.699-4.033-0.888 0-1.073 0.74-2.479 1.184-2.738 0.888-6.327 1.665-7.437 1.628-0.814-0.037002-1.554-1.554-2.109-2.627l-0.407 0.073998c-0.333 0.66599-0.74 1.813-0.74 2.516-0.074005 1.998 2.627 4.181 3.811 4.181 1.073 0 1.813-0.666 2.886-1.332 1.221-0.74 3.404-2.035 4.736-2.479 0.814-0.296 1.036-0.11099 0.518 0.592-1.554 2.479-5.106 6.068-6.845 7.696-2.072 2.072-4.218 3.848-5.883 4.736-0.962 0.481-2.516 0.925-3.404 1.258-0.888 0.33301-1.221 0.888-1.221 1.776 0 1.147 1.295 2.701 2.442 2.701 1.369 0 2.035-1.147 4.329-2.59 1.517-0.962 4.181-2.109 6.327-2.738 0.555-0.148 0.629 0.037002 0.185 0.444-1.591 1.48-3.515 3.663-3.515 6.956 0 3.552 2.442 5.92 5.809 6.956 1.221 0.33301 3.256 0.629 5.106 0.629z" fill="#868686" fill-rule="evenodd"/>
 <linearGradient id="linearGradient1" x1="193" x2="193" y1="-44" y2="180" gradientUnits="userSpaceOnUse">
  <stop stop-color="#85c2ff" offset=".13051"/>
  <stop stop-color="#ffa1a1" offset=".8924"/>
 </linearGradient>
 <filter id="filter1" x="0" y="0" width="360" height="170" color-interpolation-filters="sRGB" filterUnits="userSpaceOnUse">
  <feGaussianBlur stdDeviation="6"/>
  <feOffset dx="3.377338" dy="2.143266" result="offsetblur"/>
  <feFlood flood-color="#000000" flood-opacity=".38129"/>
  <feComposite in2="offsetblur" operator="in"/>
  <feMerge>
   <feMergeNode/>
   <feMergeNode in="SourceGraphic"/>
  </feMerge>
 </filter>
 <path id="Zombals" d="m314.9 103.12c-5.9734 0-10.491-1.6987-13.552-5.096-3.0613-3.3974-4.592-8.2693-4.592-14.616v-4.48h11.648v5.376c0 5.0774 2.128 7.616 6.384 7.616 2.0907 0 3.6773-0.61599 4.76-1.848 1.0827-1.232 1.624-3.2293 1.624-5.992 0-3.2854-0.74667-6.1787-2.24-8.68-1.4933-2.5014-4.256-5.5067-8.288-9.016-5.0774-4.48-8.624-8.5307-10.64-12.152-2.016-3.6214-3.024-7.7093-3.024-12.264 0-6.1974 1.568-10.995 4.704-14.392 3.136-3.3974 7.6906-5.096 13.664-5.096 5.8987 0 10.36 1.6987 13.384 5.096 3.024 3.3973 4.536 8.2693 4.536 14.616v3.248h-11.648v-4.032c0-2.688-0.52264-4.648-1.568-5.88s-2.576-1.848-4.592-1.848c-4.1067 0-6.16 2.5013-6.16 7.504 0 2.8373 0.76535 5.488 2.296 7.952 1.5307 2.464 4.312 5.4506 8.344 8.96 5.152 4.48 8.6986 8.5493 10.64 12.208s2.912 7.952 2.912 12.88c0 6.4214-1.5867 11.349-4.76 14.784-3.1733 3.4347-7.784 5.152-13.832 5.152zm-54.544-79.52h12.32v67.2h20.272v11.2h-32.592zm-35.392 0h16.688l12.768 78.4h-12.32l-2.24-15.568v0.224h-14l-2.24 15.344h-11.424zm13.44 52.416-5.488-38.752h-0.224l-5.376 38.752zm-68.208-52.416h18.592c6.3467 0 10.976 1.4746 13.888 4.424 2.912 2.9493 4.368 7.4853 4.368 13.608v3.136c0 4.032-0.65332 7.3173-1.96 9.856s-3.304 4.368-5.992 5.488v0.224c6.1227 2.0907 9.184 7.5413 9.184 16.352v6.72c0 6.048-1.5867 10.659-4.76 13.832-3.1733 3.1734-7.8213 4.76-13.944 4.76h-19.376zm17.136 31.92c2.464 0 4.312-0.63466 5.544-1.904 1.232-1.2693 1.848-3.3973 1.848-6.384v-4.368c0-2.8373-0.504-4.8907-1.512-6.16-1.008-1.2693-2.5947-1.904-4.76-1.904h-5.936v20.72zm2.24 35.28c2.1653 0 3.7707-0.57867 4.816-1.736 1.0453-1.1573 1.568-3.1547 1.568-5.992v-6.832c0-3.584-0.616-6.0667-1.848-7.448-1.232-1.3813-3.2667-2.072-6.104-2.072h-5.488v24.08zm-79.632-67.2h17.584l7.84 56.112h0.224l7.84-56.112h17.584v78.4h-11.648v-59.36h-0.224l-8.96 59.36h-10.304l-8.96-59.36h-0.224v59.36h-10.752zm-26.992 79.52c-6.048 0-10.677-1.7173-13.888-5.152-3.2107-3.4347-4.816-8.288-4.816-14.56v-41.216c0-6.272 1.6053-11.125 4.816-14.56 3.2107-3.4347 7.84-5.152 13.888-5.152s10.677 1.7173 13.888 5.152c3.2107 3.4347 4.816 8.288 4.816 14.56v41.216c0 6.272-1.6053 11.125-4.816 14.56-3.2107 3.4347-7.84 5.152-13.888 5.152zm0-11.2c4.256 0 6.384-2.576 6.384-7.728v-42.784c0-5.152-2.128-7.728-6.384-7.728-4.256 0-6.384 2.576-6.384 7.728v42.784c0 5.152 2.128 7.728 6.384 7.728zm-60.816-0.896 22.848-56.224h-21.728v-11.2h34.944v10.976l-22.848 56.224h22.848v11.2h-36.064z" fill="url(#linearGradient1)" fill-rule="evenodd" filter="url(#filter1)" stroke="#2e2e2e" stroke-opacity=".53069" stroke-width="2"/>
</svg>
